# xmcd CD database file
#
# Track frame offsets:
#	150
#	16500
#	33383
#	47014
#	62075
#	77383
#	91713
#	110402
#	127926
#	145013
#	168087
#	191811
#	222677
#	237391
#
# Disc length: 3333 seconds
#
# Revision: 9
# Processed by: cddbd v1.5.2PL0 Copyright (c) Steve Scherf et al.
# Submitted via: CDex 1.84
#
DISCID=ae0d030e
DTITLE=Eric Clapton - Eric Clapton (Deluxe Edition CD 2)
DYEAR=2006
DGENRE=Rock
TTITLE0=Eric Clapton - Slunky
TTITLE1=Eric Clapton - Bad Boy
TTITLE2=Eric Clapton - Easy Now
TTITLE3=Eric Clapton - After Midnight
TTITLE4=Eric Clapton - Blues Power
TTITLE5=Eric Clapton - Bottle Of Red Wine
TTITLE6=Eric Clapton - Lovin' You Lovin' Me
TTITLE7=Eric Clapton - Lonesome And A Long Way From Home
TTITLE8=Eric Clapton - Don't Know Why
TTITLE9=Eric Clapton - Let It Rain
TTITLE10=Eric Clapton - Don't Know Why (Olympic Studios Version)
TTITLE11=Eric Clapton - I've Told You For The Last Time (Olympic Studios Version)
TTITLE12=Eric Clapton - Delaney and Bonnie And Friends Featuring Eric Clapton  - Comin' Home
TTITLE13=Eric Clapton - Delaney and Bonnie And Friends Featuring Eric Clapton - Groupie (Superstar)
EXTD=YEAR: 2006
EXTT0=
EXTT1=
EXTT2=
EXTT3=
EXTT4=
EXTT5=
EXTT6=
EXTT7=
EXTT8=
EXTT9=
EXTT10=
EXTT11=
EXTT12=
EXTT13=
PLAYORDER=
